<?xml version="1.0" standalone="no"?>
<!DOCTYPE svg PUBLIC "-//W3C//DTD SVG 20010904//EN"
 "http://www.w3.org/TR/2001/REC-SVG-20010904/DTD/svg10.dtd">
<svg version="1.0" xmlns="http://www.w3.org/2000/svg"
 width="920.000000pt" height="636.000000pt" viewBox="0 0 920.000000 636.000000"
 preserveAspectRatio="xMidYMid meet">

<g transform="translate(0.000000,636.000000) scale(0.100000,-0.100000)"
fill="#000000" stroke="none">
<path d="M1450 6103 c-221 -23 -431 -127 -606 -299 -112 -111 -133 -136 -211
-252 -94 -141 -130 -219 -138 -299 -3 -37 -8 -84 -11 -103 -5 -36 -23 -188
-49 -415 -9 -71 -17 -143 -20 -160 -2 -16 -7 -57 -10 -90 -3 -33 -8 -71 -10
-85 -3 -14 -11 -83 -20 -155 -8 -71 -22 -188 -30 -260 -9 -71 -20 -166 -25
-210 -22 -204 -40 -352 -45 -372 l-5 -23 140 0 140 0 0 -445 c0 -416 -1 -446
-17 -452 -61 -20 -114 -54 -165 -106 -106 -107 -98 -47 -98 -747 l0 -610 284
0 285 0 7 -48 c29 -204 166 -424 339 -547 74 -53 209 -118 280 -134 288 -66
572 6 778 200 91 84 137 147 193 259 l34 70 1985 0 1985 0 30 -66 c198 -437
716 -622 1140 -409 158 79 291 212 372 372 l52 103 298 0 298 0 0 1405 0 1405
177 0 176 0 -7 108 c-3 59 -9 168 -12 242 -3 74 -9 198 -14 275 -5 77 -12 203
-15 280 -3 77 -8 169 -11 205 -2 36 -9 147 -14 247 -10 201 -19 268 -57 423
-61 252 -169 433 -341 572 -39 32 -126 77 -192 100 l-65 23 -3385 1 c-1862 0
-3401 -1 -3420 -3z m118 -1400 l-3 -418 -414 -3 c-228 -1 -418 1 -421 5 -4 5
2 67 12 138 10 72 32 229 49 349 32 234 39 253 99 296 64 45 90 49 393 49
l287 1 -2 -417z m1361 2 l-1 -395 -549 0 -549 0 0 395 0 395 550 0 549 0 0
-395z m1351 0 l0 -395 -545 0 -545 0 0 395 0 395 545 0 545 0 0 -395z m1360 0
l0 -395 -545 0 -545 0 -2 395 -3 395 548 0 547 0 0 -395z m1370 0 l0 -395
-550 0 -550 0 0 395 0 395 550 0 550 0 0 -395z m1036 370 c80 -40 141 -107
170 -186 13 -36 16 -94 18 -321 l1 -278 -492 0 -493 0 0 405 0 405 373 0 373
0 50 -25z m-6536 -2125 l0 -450 -413 0 -412 0 1 443 c1 243 2 445 3 450 0 4
185 7 411 7 l410 0 0 -450z m1588 -27 l2 -403 -565 0 -565 0 0 403 0 402 563
0 562 0 3 -402z m1410 0 l2 -403 -565 0 -565 0 0 403 0 403 563 -1 562 0 3
-402z m1472 -3 l0 -400 -565 0 -565 0 0 400 0 400 565 0 565 0 0 -400z m1440
0 l0 -400 -565 0 -565 0 0 400 0 400 565 0 565 0 0 -400z m-5608 -1401 c131
-44 236 -147 278 -274 19 -56 22 -83 18 -163 -3 -85 -8 -106 -38 -167 -130
-272 -492 -334 -704 -122 -145 145 -171 372 -63 543 105 167 324 246 509 183z
m5561 -8 c117 -40 218 -132 266 -242 18 -41 23 -61 35 -154 13 -101 -44 -246
-128 -331 -214 -213 -576 -149 -708 125 -58 120 -49 297 21 412 51 83 145 156
246 191 70 24 196 24 268 -1z"/>
<path d="M1597 1450 c-103 -26 -194 -100 -243 -198 -25 -50 -28 -68 -29 -147
0 -76 4 -98 26 -145 39 -81 90 -134 167 -172 60 -30 75 -33 157 -33 77 0 98 4
145 26 82 39 135 90 172 167 30 60 33 75 33 157 0 78 -4 98 -27 145 -73 148
-252 237 -401 200z m135 -288 c10 -9 20 -31 24 -49 5 -27 1 -37 -24 -63 -39
-39 -74 -39 -113 -1 -33 33 -37 65 -13 99 30 44 89 50 126 14z"/>
<path d="M7145 1436 c-67 -21 -118 -52 -161 -98 -53 -56 -69 -83 -88 -148 -51
-173 40 -355 215 -427 31 -13 69 -18 129 -18 72 1 94 5 144 30 201 96 267 341
141 524 -79 114 -254 177 -380 137z m153 -292 c30 -34 28 -70 -7 -105 -39 -38
-74 -38 -113 1 -25 26 -29 36 -24 62 15 77 92 100 144 42z"/>
</g>
</svg>
